<?xml version="1.0" encoding="utf-8"?><svg xmlns="http://www.w3.org/2000/svg" xmlns:xlink="http://www.w3.org/1999/xlink"><symbol viewBox="0 0 40 40" id="search" xmlns="http://www.w3.org/2000/svg">
    <path d="M36.8889 40L22.8889 26C21.7778 26.8889 20.5 27.5926 19.0556 28.1111C17.6111 28.6296 16.0741 28.8889 14.4444 28.8889C10.4074 28.8889 6.99111 27.4904 4.19556 24.6933C1.4 21.8963 0.00148266 18.48 1.17578e-06 14.4444C-0.00148031 10.4089 1.39704 6.99259 4.19556 4.19556C6.99408 1.39852 10.4104 0 14.4444 0C18.4785 0 21.8956 1.39852 24.6956 4.19556C27.4956 6.99259 28.8933 10.4089 28.8889 14.4444C28.8889 16.0741 28.6296 17.6111 28.1111 19.0556C27.5926 20.5 26.8889 21.7778 26 22.8889L40 36.8889L36.8889 40ZM14.4444 24.4444C17.2222 24.4444 19.5837 23.4726 21.5289 21.5289C23.4741 19.5852 24.4459 17.2237 24.4444 14.4444C24.443 11.6652 23.4711 9.30445 21.5289 7.36222C19.5867 5.42 17.2252 4.44741 14.4444 4.44444C11.6637 4.44148 9.30297 5.41407 7.36222 7.36222C5.42148 9.31037 4.44889 11.6711 4.44445 14.4444C4.44 17.2178 5.41259 19.5793 7.36222 21.5289C9.31185 23.4785 11.6726 24.4504 14.4444 24.4444Z"/>
</symbol><symbol viewBox="0 0 48 48" id="tg" xmlns="http://www.w3.org/2000/svg">
    <rect width="48" height="48" rx="8"/>
    <path d="M12.6305 23.1231C12.6856 23.0955 12.7408 23.0693 12.7945 23.0445C13.7287 22.6119 14.6753 22.2068 15.6206 21.8017C15.6716 21.8017 15.757 21.7424 15.8052 21.7231C15.8782 21.6914 15.9513 21.6611 16.0243 21.6294C16.1648 21.5688 16.3054 21.5096 16.4446 21.4489C16.7256 21.3291 17.0053 21.2092 17.2864 21.0893C17.8472 20.8496 18.408 20.6098 18.9688 20.3687C20.0904 19.8892 21.2134 19.4083 22.335 18.9288C23.4566 18.4493 24.5796 17.9684 25.7012 17.4889C26.8228 17.0094 27.9458 16.5285 29.0674 16.049C30.189 15.5695 31.312 15.0886 32.4336 14.6091C32.683 14.5016 32.953 14.3418 33.2203 14.2949C33.4449 14.255 33.664 14.1778 33.89 14.1351C34.3185 14.0538 34.7911 14.0208 35.2017 14.1985C35.3437 14.2605 35.4746 14.3473 35.5834 14.4562C36.1043 14.9715 36.0312 15.8175 35.921 16.5423C35.1535 21.5936 34.386 26.6464 33.6172 31.6977C33.5124 32.3908 33.3691 33.1514 32.8221 33.5895C32.3591 33.9602 31.7005 34.0015 31.1287 33.8444C30.5569 33.686 30.0526 33.3539 29.5579 33.0273C27.5062 31.6687 25.4532 30.3101 23.4015 28.9515C22.9137 28.6291 22.3709 28.2075 22.3764 27.6219C22.3791 27.2691 22.5899 26.955 22.8049 26.6753C24.5879 24.3494 27.1604 22.7511 29.0743 20.5327C29.3443 20.2199 29.5565 19.6549 29.1859 19.4744C28.9654 19.367 28.7119 19.513 28.5107 19.6522C25.9809 21.409 23.4525 23.1672 20.9227 24.924C20.0973 25.4972 19.232 26.0869 18.2372 26.2274C17.3471 26.3542 16.4514 26.1062 15.5903 25.8527C14.8683 25.6405 14.1476 25.4228 13.4297 25.1982C13.048 25.0797 12.654 24.9515 12.3591 24.6828C12.0642 24.4141 11.8948 23.9622 12.0725 23.604C12.1841 23.3794 12.4005 23.2375 12.6278 23.1217L12.6305 23.1231Z"/>
</symbol><symbol viewBox="0 0 46 40" id="visibility" xmlns="http://www.w3.org/2000/svg">
    <g filter="url(#cfilter0_d_2001_253)">
        <path d="M23.0003 26.6665C25.0837 26.6665 26.8548 25.9376 28.3137 24.4798C29.7725 23.0221 30.5014 21.2509 30.5003 19.1665C30.4992 17.0821 29.7703 15.3115 28.3137 13.8548C26.857 12.3982 25.0859 11.6687 23.0003 11.6665C20.9148 11.6643 19.1442 12.3937 17.6887 13.8548C16.2331 15.3159 15.5037 17.0865 15.5003 19.1665C15.497 21.2465 16.2264 23.0176 17.6887 24.4798C19.1509 25.9421 20.9214 26.671 23.0003 26.6665ZM23.0003 23.6665C21.7503 23.6665 20.6881 23.2287 19.8137 22.3532C18.9392 21.4776 18.5014 20.4154 18.5003 19.1665C18.4992 17.9176 18.937 16.8554 19.8137 15.9798C20.6903 15.1043 21.7525 14.6665 23.0003 14.6665C24.2481 14.6665 25.3109 15.1043 26.1887 15.9798C27.0664 16.8554 27.5037 17.9176 27.5003 19.1665C27.497 20.4154 27.0598 21.4782 26.1887 22.3548C25.3175 23.2315 24.2548 23.6687 23.0003 23.6665ZM23.0003 31.6665C18.9448 31.6665 15.2503 30.5348 11.917 28.2715C8.58366 26.0082 6.16699 22.9732 4.66699 19.1665C6.16699 15.3609 8.58366 12.3265 11.917 10.0632C15.2503 7.79984 18.9448 6.66762 23.0003 6.6665C27.0559 6.66539 30.7503 7.79762 34.0837 10.0632C37.417 12.3287 39.8337 15.3632 41.3337 19.1665C39.8337 22.9721 37.417 26.0071 34.0837 28.2715C30.7503 30.5359 27.0559 31.6676 23.0003 31.6665Z"/>
    </g>
    <defs>
        <filter id="cfilter0_d_2001_253" x="-1" y="0" width="48" height="48" filterUnits="userSpaceOnUse" color-interpolation-filters="sRGB">
            <feFlood flood-opacity="0" result="BackgroundImageFix"/>
            <feColorMatrix in="SourceAlpha" type="matrix" values="0 0 0 0 0 0 0 0 0 0 0 0 0 0 0 0 0 0 127 0" result="hardAlpha"/>
            <feOffset dy="4"/>
            <feGaussianBlur stdDeviation="2"/>
            <feComposite in2="hardAlpha" operator="out"/>
            <feColorMatrix type="matrix" values="0 0 0 0 0 0 0 0 0 0 0 0 0 0 0 0 0 0 0.25 0"/>
            <feBlend mode="normal" in2="BackgroundImageFix" result="effect1_dropShadow_2001_253"/>
            <feBlend mode="normal" in="SourceGraphic" in2="effect1_dropShadow_2001_253" result="shape"/>
        </filter>
    </defs>
</symbol><symbol viewBox="0 0 48 48" id="vk" xmlns="http://www.w3.org/2000/svg">
    <rect width="48" height="48" rx="8"/>
    <g clip-path="url(#dclip0_2001_259)">
        <path fill-rule="evenodd" clip-rule="evenodd" d="M35.45 17.948C35.616 17.402 35.45 17 34.655 17H32.03C31.362 17 31.054 17.347 30.887 17.73C30.887 17.73 29.552 20.926 27.661 23.002C27.049 23.604 26.771 23.795 26.437 23.795C26.27 23.795 26.019 23.604 26.019 23.057V17.948C26.019 17.292 25.835 17 25.279 17H21.151C20.734 17 20.483 17.304 20.483 17.593C20.483 18.214 21.429 18.358 21.526 20.106V23.904C21.526 24.737 21.373 24.888 21.039 24.888C20.149 24.888 17.984 21.677 16.699 18.003C16.45 17.288 16.198 17 15.527 17H12.9C12.15 17 12 17.347 12 17.73C12 18.412 12.89 21.8 16.145 26.281C18.315 29.341 21.37 31 24.153 31C25.822 31 26.028 30.632 26.028 29.997V27.684C26.028 26.947 26.186 26.8 26.715 26.8C27.105 26.8 27.772 26.992 29.33 28.467C31.11 30.216 31.403 31 32.405 31H35.03C35.78 31 36.156 30.632 35.94 29.904C35.702 29.18 34.852 28.129 33.725 26.882C33.113 26.172 32.195 25.407 31.916 25.024C31.527 24.533 31.638 24.314 31.916 23.877C31.916 23.877 35.116 19.451 35.449 17.948"/>
    </g>
    <defs>
        <clipPath id="dclip0_2001_259">
            <rect width="24" height="24" transform="translate(12 12)"/>
        </clipPath>
    </defs>
</symbol></svg>