<svg width="16" height="15" viewBox="0 0 16 15" fill="none" xmlns="http://www.w3.org/2000/svg">
<path d="M14.08 15.0001L9.04005 9.9601C8.64005 10.2801 8.18005 10.5334 7.66005 10.7201C7.14005 10.9068 6.58672 11.0001 6.00005 11.0001C4.54672 11.0001 3.31685 10.4966 2.31045 9.4897C1.30405 8.48276 0.800583 7.2529 0.800049 5.8001C0.799516 4.3473 1.30298 3.11743 2.31045 2.1105C3.31792 1.10356 4.54778 0.600098 6.00005 0.600098C7.45232 0.600098 8.68245 1.10356 9.69045 2.1105C10.6984 3.11743 11.2016 4.3473 11.2 5.8001C11.2 6.38676 11.1067 6.9401 10.92 7.4601C10.7334 7.9801 10.48 8.4401 10.16 8.8401L15.2 13.8801L14.08 15.0001ZM6.00005 9.4001C7.00005 9.4001 7.85018 9.05023 8.55045 8.3505C9.25072 7.65076 9.60058 6.80063 9.60005 5.8001C9.59952 4.79956 9.24965 3.9497 8.55045 3.2505C7.85125 2.5513 7.00112 2.20116 6.00005 2.2001C4.99898 2.19903 4.14912 2.54916 3.45045 3.2505C2.75178 3.95183 2.40165 4.8017 2.40005 5.8001C2.39845 6.7985 2.74858 7.64863 3.45045 8.3505C4.15232 9.05236 5.00218 9.40223 6.00005 9.4001Z" fill="black"/>
</svg>
