<svg width="23" height="26" viewBox="0 0 23 26" fill="none" xmlns="http://www.w3.org/2000/svg">
<path d="M3.56247 12.1378L12.5376 3.16262C13.5222 2.17804 14.8576 1.62492 16.25 1.62492C17.6424 1.62492 18.9777 2.17804 19.9623 3.16262C20.9469 4.14719 21.5 5.48255 21.5 6.87495C21.5 8.26734 20.9469 9.60271 19.9623 10.5873L7.19897 23.3506C6.87386 23.6756 6.48793 23.9333 6.06321 24.1091C5.63849 24.2849 5.18331 24.3754 4.72364 24.3752C4.26398 24.3751 3.80883 24.2845 3.3842 24.1085C2.95957 23.9325 2.57376 23.6746 2.2488 23.3494C1.92385 23.0243 1.66611 22.6384 1.4903 22.2137C1.31449 21.789 1.22407 21.3338 1.22417 20.8741C1.22428 20.4145 1.31492 19.9593 1.49093 19.5347C1.66694 19.11 1.92486 18.7242 2.24997 18.3993L15.0226 5.62662C15.354 5.30896 15.7969 5.13537 16.2559 5.14119C16.7148 5.147 17.1532 5.33292 17.4764 5.65887C17.7996 5.98482 17.9818 6.42471 17.9837 6.88373C17.9856 7.34274 17.8071 7.78414 17.4866 8.11278L8.37497 17.2244M15.0121 5.63828L15.0238 5.62662" stroke="black" stroke-width="1.75" stroke-linecap="round" stroke-linejoin="round"/>
</svg>
