<svg width="40" height="40" viewBox="0 0 40 40" fill="none" xmlns="http://www.w3.org/2000/svg">
<path d="M20.0003 26.6665C22.0837 26.6665 23.8548 25.9376 25.3137 24.4798C26.7725 23.0221 27.5014 21.2509 27.5003 19.1665C27.4992 17.0821 26.7703 15.3115 25.3137 13.8548C23.857 12.3982 22.0859 11.6687 20.0003 11.6665C17.9148 11.6643 16.1442 12.3937 14.6887 13.8548C13.2331 15.3159 12.5037 17.0865 12.5003 19.1665C12.497 21.2465 13.2264 23.0176 14.6887 24.4798C16.1509 25.9421 17.9214 26.671 20.0003 26.6665ZM20.0003 23.6665C18.7503 23.6665 17.6881 23.2287 16.8137 22.3532C15.9392 21.4776 15.5014 20.4154 15.5003 19.1665C15.4992 17.9176 15.937 16.8554 16.8137 15.9798C17.6903 15.1043 18.7525 14.6665 20.0003 14.6665C21.2481 14.6665 22.3109 15.1043 23.1887 15.9798C24.0664 16.8554 24.5037 17.9176 24.5003 19.1665C24.497 20.4154 24.0598 21.4782 23.1887 22.3548C22.3175 23.2315 21.2548 23.6687 20.0003 23.6665ZM20.0003 31.6665C15.9448 31.6665 12.2503 30.5348 8.91699 28.2715C5.58366 26.0082 3.16699 22.9732 1.66699 19.1665C3.16699 15.3609 5.58366 12.3265 8.91699 10.0632C12.2503 7.79984 15.9448 6.66762 20.0003 6.6665C24.0559 6.66539 27.7503 7.79762 31.0837 10.0632C34.417 12.3287 36.8337 15.3632 38.3337 19.1665C36.8337 22.9721 34.417 26.0071 31.0837 28.2715C27.7503 30.5359 24.0559 31.6676 20.0003 31.6665Z" fill="black"/>
</svg>
