<?xml version="1.0" encoding="utf-8"?><svg viewBox="0 0 48 48" xmlns="http://www.w3.org/2000/svg" xmlns:xlink="http://www.w3.org/1999/xlink"><style>:root>svg{display:none}:root>svg:target{display:block}</style><svg fill="none" viewBox="0 0 40 40" id="search" xmlns="http://www.w3.org/2000/svg">
    <path d="m36.889 40-14-14c-1.111.889-2.389 1.593-3.833 2.111-1.445.519-2.982.778-4.612.778-4.037 0-7.453-1.399-10.248-4.196C1.4 21.896 0 18.48 0 14.444-.001 10.41 1.397 6.993 4.196 4.196 6.994 1.399 10.41 0 14.444 0c4.034 0 7.452 1.399 10.252 4.196 2.8 2.797 4.197 6.213 4.193 10.248 0 1.63-.26 3.167-.778 4.612-.518 1.444-1.222 2.722-2.111 3.833l14 14L36.889 40ZM14.444 24.444c2.778 0 5.14-.971 7.085-2.915 1.945-1.944 2.917-4.305 2.915-7.085-.001-2.779-.973-5.14-2.915-7.082-1.942-1.942-4.304-2.915-7.085-2.918-2.78-.003-5.141.97-7.082 2.918-1.94 1.948-2.913 4.31-2.918 7.082-.004 2.774.969 5.135 2.918 7.085 1.95 1.95 4.31 2.921 7.082 2.915Z" fill="#000"/>
</svg><svg fill="none" viewBox="0 0 48 48" id="tg" xmlns="http://www.w3.org/2000/svg">
    <rect width="48" height="48" rx="8" fill="#000"/>
    <path d="m12.63 23.123.164-.079c.935-.432 1.881-.837 2.827-1.242.05 0 .136-.06.184-.079l.22-.094.42-.18.841-.36 1.683-.72 3.366-1.44 3.366-1.44 3.366-1.44 3.367-1.44c.249-.107.519-.267.786-.314.225-.04.444-.117.67-.16.428-.081.901-.114 1.312.063.142.063.273.15.381.258.521.516.448 1.362.338 2.086l-2.304 15.156c-.105.693-.248 1.453-.795 1.892-.463.37-1.122.411-1.693.254-.572-.158-1.076-.49-1.571-.817L23.4 28.951c-.487-.322-1.03-.744-1.025-1.33.003-.352.214-.666.429-.946 1.783-2.326 4.355-3.924 6.27-6.142.27-.313.482-.878.11-1.059-.22-.107-.473.039-.674.178l-7.588 5.272c-.826.573-1.691 1.163-2.686 1.303-.89.127-1.786-.12-2.647-.374-.722-.213-1.442-.43-2.16-.655-.382-.118-.776-.247-1.07-.515-.296-.269-.465-.72-.287-1.079.111-.225.327-.366.555-.482l.002.001Z" fill="#fff"/>
</svg><svg fill="none" viewBox="0 0 46 40" id="visibility" xmlns="http://www.w3.org/2000/svg">
    <g filter="url(#ca)">
        <path d="M23 26.666c2.084 0 3.855-.728 5.314-2.186s2.187-3.23 2.186-5.314c0-2.084-.73-3.854-2.186-5.311-1.457-1.457-3.228-2.186-5.314-2.189-2.085-.002-3.856.728-5.311 2.189-1.456 1.46-2.185 3.232-2.189 5.311-.003 2.08.726 3.852 2.189 5.314C19.15 25.942 20.92 26.67 23 26.666Zm0-3c-1.25 0-2.312-.437-3.186-1.313-.875-.875-1.313-1.938-1.314-3.187 0-1.248.437-2.31 1.314-3.186.876-.876 1.939-1.314 3.186-1.314 1.248 0 2.31.438 3.189 1.314.877.875 1.315 1.938 1.311 3.186-.003 1.25-.44 2.312-1.311 3.189-.872.877-1.934 1.314-3.189 1.311Zm0 8c-4.055 0-7.75-1.131-11.083-3.395-3.333-2.263-5.75-5.298-7.25-9.105 1.5-3.805 3.917-6.84 7.25-9.103S18.945 6.668 23 6.666c4.056 0 7.75 1.132 11.084 3.397 3.333 2.266 5.75 5.3 7.25 9.103-1.5 3.806-3.917 6.841-7.25 9.105-3.334 2.265-7.028 3.397-11.084 3.395Z" fill="#000"/>
    </g>
    <defs>
        <filter id="ca" x="-1" y="0" width="48" height="48" filterUnits="userSpaceOnUse" color-interpolation-filters="sRGB">
            <feFlood flood-opacity="0" result="BackgroundImageFix"/>
            <feColorMatrix in="SourceAlpha" values="0 0 0 0 0 0 0 0 0 0 0 0 0 0 0 0 0 0 127 0" result="hardAlpha"/>
            <feOffset dy="4"/>
            <feGaussianBlur stdDeviation="2"/>
            <feComposite in2="hardAlpha" operator="out"/>
            <feColorMatrix values="0 0 0 0 0 0 0 0 0 0 0 0 0 0 0 0 0 0 0.25 0"/>
            <feBlend in2="BackgroundImageFix" result="effect1_dropShadow_2001_253"/>
            <feBlend in="SourceGraphic" in2="effect1_dropShadow_2001_253" result="shape"/>
        </filter>
    </defs>
</svg><svg fill="none" viewBox="0 0 48 48" id="vk" xmlns="http://www.w3.org/2000/svg">
    <rect width="48" height="48" rx="8" fill="#000"/>
    <g clip-path="url(#da)">
        <path fill-rule="evenodd" clip-rule="evenodd" d="M35.45 17.948c.166-.546 0-.948-.795-.948H32.03c-.668 0-.976.347-1.143.73 0 0-1.335 3.196-3.226 5.272-.612.602-.89.793-1.224.793-.167 0-.418-.191-.418-.738v-5.109c0-.656-.184-.948-.74-.948h-4.128c-.417 0-.668.304-.668.593 0 .621.946.765 1.043 2.513v3.798c0 .833-.153.984-.487.984-.89 0-3.055-3.211-4.34-6.885-.249-.715-.501-1.003-1.172-1.003H12.9c-.75 0-.9.347-.9.73 0 .682.89 4.07 4.145 8.551C18.315 29.341 21.37 31 24.153 31c1.669 0 1.875-.368 1.875-1.003v-2.313c0-.737.158-.884.687-.884.39 0 1.057.192 2.615 1.667C31.11 30.216 31.403 31 32.405 31h2.625c.75 0 1.126-.368.91-1.096-.238-.724-1.088-1.775-2.215-3.022-.612-.71-1.53-1.475-1.809-1.858-.389-.491-.278-.71 0-1.147 0 0 3.2-4.426 3.533-5.929" fill="#fff"/>
    </g>
    <defs>
        <clipPath id="da">
            <path fill="#fff" transform="translate(12 12)" d="M0 0h24v24H0z"/>
        </clipPath>
    </defs>
</svg></svg>