<svg width="46" height="40" viewBox="0 0 46 40" fill="none" xmlns="http://www.w3.org/2000/svg">
<g filter="url(#filter0_d_2001_253)">
<path d="M23.0003 26.6665C25.0837 26.6665 26.8548 25.9376 28.3137 24.4798C29.7725 23.0221 30.5014 21.2509 30.5003 19.1665C30.4992 17.0821 29.7703 15.3115 28.3137 13.8548C26.857 12.3982 25.0859 11.6687 23.0003 11.6665C20.9148 11.6643 19.1442 12.3937 17.6887 13.8548C16.2331 15.3159 15.5037 17.0865 15.5003 19.1665C15.497 21.2465 16.2264 23.0176 17.6887 24.4798C19.1509 25.9421 20.9214 26.671 23.0003 26.6665ZM23.0003 23.6665C21.7503 23.6665 20.6881 23.2287 19.8137 22.3532C18.9392 21.4776 18.5014 20.4154 18.5003 19.1665C18.4992 17.9176 18.937 16.8554 19.8137 15.9798C20.6903 15.1043 21.7525 14.6665 23.0003 14.6665C24.2481 14.6665 25.3109 15.1043 26.1887 15.9798C27.0664 16.8554 27.5037 17.9176 27.5003 19.1665C27.497 20.4154 27.0598 21.4782 26.1887 22.3548C25.3175 23.2315 24.2548 23.6687 23.0003 23.6665ZM23.0003 31.6665C18.9448 31.6665 15.2503 30.5348 11.917 28.2715C8.58366 26.0082 6.16699 22.9732 4.66699 19.1665C6.16699 15.3609 8.58366 12.3265 11.917 10.0632C15.2503 7.79984 18.9448 6.66762 23.0003 6.6665C27.0559 6.66539 30.7503 7.79762 34.0837 10.0632C37.417 12.3287 39.8337 15.3632 41.3337 19.1665C39.8337 22.9721 37.417 26.0071 34.0837 28.2715C30.7503 30.5359 27.0559 31.6676 23.0003 31.6665Z" fill="black"/>
</g>
<defs>
<filter id="filter0_d_2001_253" x="-1" y="0" width="48" height="48" filterUnits="userSpaceOnUse" color-interpolation-filters="sRGB">
<feFlood flood-opacity="0" result="BackgroundImageFix"/>
<feColorMatrix in="SourceAlpha" type="matrix" values="0 0 0 0 0 0 0 0 0 0 0 0 0 0 0 0 0 0 127 0" result="hardAlpha"/>
<feOffset dy="4"/>
<feGaussianBlur stdDeviation="2"/>
<feComposite in2="hardAlpha" operator="out"/>
<feColorMatrix type="matrix" values="0 0 0 0 0 0 0 0 0 0 0 0 0 0 0 0 0 0 0.25 0"/>
<feBlend mode="normal" in2="BackgroundImageFix" result="effect1_dropShadow_2001_253"/>
<feBlend mode="normal" in="SourceGraphic" in2="effect1_dropShadow_2001_253" result="shape"/>
</filter>
</defs>
</svg>
